<svg xmlns="http://www.w3.org/2000/svg" viewBox="0 0 27.43 29.49"><title>b-close</title><g id="Layer_1" data-name="Layer 1"><path d="M13.72,16.25a1.51,1.51,0,0,1-1.11-.48L.4,2.52a1.5,1.5,0,1,1,2.2-2L14.82,13.73a1.5,1.5,0,0,1-.09,2.12A1.47,1.47,0,0,1,13.72,16.25Z"/><path d="M1.51,29.49A1.51,1.51,0,0,1,.41,27l12.2-13.24a1.5,1.5,0,0,1,2.21,2L2.62,29A1.52,1.52,0,0,1,1.51,29.49Z"/><path d="M13.72,16.25a1.48,1.48,0,0,1-1-.4,1.5,1.5,0,0,1-.09-2.12L24.83.48a1.5,1.5,0,1,1,2.2,2L14.82,15.77A1.5,1.5,0,0,1,13.72,16.25Z"/><path d="M25.92,29.49A1.52,1.52,0,0,1,24.81,29L12.61,15.77a1.5,1.5,0,0,1,2.21-2L27,27a1.51,1.51,0,0,1-1.1,2.52Z"/></g></svg>