<svg xmlns="http://www.w3.org/2000/svg" viewBox="0 0 38.77 38.77"><title>b-settings</title><g id="Layer_1" data-name="Layer 1"><path d="M19.39,28.34a9,9,0,1,1,9-9A9,9,0,0,1,19.39,28.34Zm0-14.91a6,6,0,1,0,5.95,5.95A6,6,0,0,0,19.39,13.43Z"/><path d="M19.4,38.77a20,20,0,0,1-2.56-.17,1.49,1.49,0,0,1-1.23-1,4.57,4.57,0,0,0-6.46-2.69,1.5,1.5,0,0,1-1.6-.15A19.21,19.21,0,0,1,4,31.15a1.5,1.5,0,0,1-.14-1.6A4.55,4.55,0,0,0,4,25.72a4.53,4.53,0,0,0-2.83-2.59,1.52,1.52,0,0,1-1-1.23,19.48,19.48,0,0,1,0-5.06,1.49,1.49,0,0,1,1-1.23A4.61,4.61,0,0,0,4.05,13a4.59,4.59,0,0,0-.16-3.85A1.48,1.48,0,0,1,4,7.55,19.21,19.21,0,0,1,7.62,4a1.5,1.5,0,0,1,1.6-.14A4.55,4.55,0,0,0,13.05,4a4.53,4.53,0,0,0,2.59-2.83,1.52,1.52,0,0,1,1.23-1,19.48,19.48,0,0,1,5.06,0,1.52,1.52,0,0,1,1.24,1,4.57,4.57,0,0,0,2.6,2.85,4.62,4.62,0,0,0,3.85-.16,1.5,1.5,0,0,1,1.6.14,19.57,19.57,0,0,1,3.57,3.59,1.48,1.48,0,0,1,.14,1.6,4.52,4.52,0,0,0,2.65,6.42,1.52,1.52,0,0,1,1,1.23,19.05,19.05,0,0,1,0,5.06,1.49,1.49,0,0,1-1,1.23,4.57,4.57,0,0,0-2.69,6.46,1.5,1.5,0,0,1-.14,1.6,19.57,19.57,0,0,1-3.59,3.57,1.5,1.5,0,0,1-1.6.14,4.5,4.5,0,0,0-6.42,2.65,1.52,1.52,0,0,1-1.23,1A20.85,20.85,0,0,1,19.4,38.77Zm-1.31-3.05a16.83,16.83,0,0,0,2.56,0A7.48,7.48,0,0,1,30,31.86a15.39,15.39,0,0,0,1.81-1.8,7.58,7.58,0,0,1,3.91-9.38,15.63,15.63,0,0,0,0-2.56,7.47,7.47,0,0,1-3.85-9.35A14.74,14.74,0,0,0,30.06,7a7.62,7.62,0,0,1-5.44-.15,7.54,7.54,0,0,1-3.94-3.76,15.51,15.51,0,0,0-2.55,0A7.61,7.61,0,0,1,14.2,6.8a7.53,7.53,0,0,1-5.43.1A16.28,16.28,0,0,0,7,8.71a7.56,7.56,0,0,1-.14,5.44,7.52,7.52,0,0,1-3.77,3.94,16.83,16.83,0,0,0,0,2.56A7.48,7.48,0,0,1,6.8,24.57,7.59,7.59,0,0,1,6.91,30a16.19,16.19,0,0,0,1.8,1.81,7.62,7.62,0,0,1,5.44.14A7.52,7.52,0,0,1,18.09,35.72Z"/></g></svg>